<svg id="visual" viewBox="0 0 900 600" width="900" height="600" xmlns="http://www.w3.org/2000/svg" xmlns:xlink="http://www.w3.org/1999/xlink" version="1.1"><rect x="0" y="0" width="900" height="600" fill="#001220"></rect><g fill="#CCCCCC"><circle r="14" cx="622" cy="108"></circle><circle r="1" cx="719" cy="371"></circle><circle r="4" cx="155" cy="445"></circle><circle r="9" cx="337" cy="39"></circle><circle r="11" cx="236" cy="309"></circle><circle r="3" cx="208" cy="396"></circle><circle r="8" cx="778" cy="159"></circle><circle r="9" cx="708" cy="436"></circle><circle r="5" cx="670" cy="456"></circle><circle r="5" cx="517" cy="475"></circle><circle r="3" cx="448" cy="254"></circle><circle r="2" cx="113" cy="574"></circle><circle r="6" cx="848" cy="125"></circle><circle r="10" cx="193" cy="536"></circle><circle r="5" cx="185" cy="362"></circle><circle r="11" cx="515" cy="190"></circle><circle r="12" cx="530" cy="93"></circle><circle r="6" cx="622" cy="553"></circle><circle r="4" cx="323" cy="163"></circle><circle r="11" cx="610" cy="515"></circle><circle r="8" cx="668" cy="158"></circle><circle r="2" cx="845" cy="370"></circle><circle r="9" cx="382" cy="35"></circle><circle r="1" cx="36" cy="501"></circle><circle r="8" cx="323" cy="582"></circle><circle r="1" cx="540" cy="292"></circle><circle r="8" cx="165" cy="291"></circle><circle r="10" cx="290" cy="570"></circle><circle r="2" cx="434" cy="97"></circle><circle r="0" cx="254" cy="126"></circle><circle r="8" cx="816" cy="328"></circle><circle r="7" cx="588" cy="381"></circle><circle r="9" cx="235" cy="91"></circle><circle r="10" cx="576" cy="204"></circle><circle r="5" cx="208" cy="76"></circle><circle r="8" cx="795" cy="371"></circle><circle r="2" cx="157" cy="78"></circle><circle r="3" cx="872" cy="195"></circle><circle r="2" cx="230" cy="142"></circle><circle r="0" cx="270" cy="315"></circle><circle r="3" cx="652" cy="344"></circle><circle r="1" cx="520" cy="66"></circle><circle r="3" cx="77" cy="140"></circle><circle r="3" cx="110" cy="355"></circle><circle r="8" cx="529" cy="497"></circle><circle r="9" cx="301" cy="71"></circle><circle r="11" cx="171" cy="168"></circle><circle r="9" cx="362" cy="90"></circle><circle r="10" cx="522" cy="18"></circle><circle r="7" cx="393" cy="207"></circle><circle r="12" cx="135" cy="387"></circle><circle r="7" cx="94" cy="417"></circle><circle r="6" cx="385" cy="522"></circle><circle r="8" cx="624" cy="216"></circle><circle r="4" cx="550" cy="385"></circle><circle r="4" cx="738" cy="246"></circle><circle r="9" cx="54" cy="305"></circle><circle r="1" cx="779" cy="393"></circle><circle r="6" cx="858" cy="242"></circle><circle r="9" cx="493" cy="443"></circle><circle r="9" cx="29" cy="252"></circle><circle r="9" cx="153" cy="326"></circle><circle r="12" cx="487" cy="322"></circle><circle r="8" cx="364" cy="222"></circle><circle r="1" cx="812" cy="434"></circle><circle r="7" cx="560" cy="271"></circle><circle r="8" cx="162" cy="524"></circle><circle r="4" cx="240" cy="584"></circle><circle r="3" cx="501" cy="367"></circle><circle r="3" cx="724" cy="150"></circle><circle r="2" cx="20" cy="314"></circle><circle r="8" cx="402" cy="395"></circle><circle r="11" cx="779" cy="223"></circle><circle r="1" cx="799" cy="140"></circle><circle r="3" cx="381" cy="265"></circle><circle r="6" cx="571" cy="310"></circle><circle r="2" cx="617" cy="454"></circle><circle r="4" cx="185" cy="423"></circle><circle r="5" cx="217" cy="34"></circle><circle r="0" cx="418" cy="449"></circle><circle r="1" cx="192" cy="576"></circle><circle r="2" cx="659" cy="297"></circle><circle r="10" cx="812" cy="463"></circle><circle r="5" cx="497" cy="507"></circle><circle r="3" cx="31" cy="122"></circle><circle r="7" cx="551" cy="177"></circle><circle r="6" cx="69" cy="399"></circle><circle r="2" cx="624" cy="72"></circle><circle r="0" cx="451" cy="506"></circle><circle r="2" cx="153" cy="202"></circle><circle r="8" cx="796" cy="493"></circle><circle r="0" cx="813" cy="57"></circle><circle r="4" cx="705" cy="582"></circle><circle r="8" cx="729" cy="564"></circle><circle r="9" cx="638" cy="382"></circle><circle r="8" cx="723" cy="13"></circle><circle r="7" cx="71" cy="536"></circle><circle r="11" cx="495" cy="113"></circle><circle r="7" cx="195" cy="262"></circle><circle r="12" cx="146" cy="481"></circle><circle r="0" cx="141" cy="160"></circle><circle r="4" cx="749" cy="411"></circle><circle r="4" cx="302" cy="546"></circle><circle r="12" cx="357" cy="438"></circle><circle r="10" cx="117" cy="73"></circle><circle r="9" cx="596" cy="352"></circle><circle r="7" cx="311" cy="514"></circle><circle r="5" cx="192" cy="298"></circle><circle r="7" cx="185" cy="468"></circle><circle r="12" cx="883" cy="260"></circle><circle r="1" cx="306" cy="414"></circle><circle r="10" cx="240" cy="499"></circle><circle r="2" cx="90" cy="336"></circle><circle r="5" cx="432" cy="546"></circle><circle r="8" cx="86" cy="253"></circle><circle r="3" cx="596" cy="303"></circle><circle r="3" cx="492" cy="70"></circle><circle r="5" cx="670" cy="256"></circle><circle r="11" cx="245" cy="454"></circle><circle r="2" cx="622" cy="167"></circle><circle r="11" cx="599" cy="435"></circle><circle r="9" cx="716" cy="184"></circle><circle r="5" cx="468" cy="275"></circle><circle r="6" cx="847" cy="557"></circle><circle r="2" cx="593" cy="586"></circle><circle r="2" cx="338" cy="318"></circle><circle r="2" cx="447" cy="440"></circle><circle r="3" cx="565" cy="245"></circle><circle r="8" cx="413" cy="279"></circle><circle r="8" cx="642" cy="533"></circle><circle r="5" cx="844" cy="402"></circle><circle r="1" cx="543" cy="142"></circle><circle r="0" cx="41" cy="16"></circle><circle r="12" cx="340" cy="271"></circle><circle r="11" cx="107" cy="17"></circle><circle r="7" cx="176" cy="40"></circle><circle r="6" cx="841" cy="467"></circle><circle r="12" cx="496" cy="36"></circle><circle r="12" cx="795" cy="113"></circle><circle r="12" cx="517" cy="278"></circle><circle r="2" cx="814" cy="251"></circle><circle r="1" cx="157" cy="413"></circle><circle r="5" cx="110" cy="163"></circle><circle r="12" cx="331" cy="234"></circle><circle r="7" cx="688" cy="359"></circle><circle r="9" cx="236" cy="264"></circle><circle r="5" cx="411" cy="119"></circle><circle r="0" cx="815" cy="224"></circle><circle r="6" cx="259" cy="533"></circle><circle r="1" cx="15" cy="211"></circle><circle r="7" cx="454" cy="321"></circle><circle r="10" cx="338" cy="401"></circle><circle r="3" cx="806" cy="28"></circle><circle r="1" cx="655" cy="482"></circle><circle r="5" cx="675" cy="427"></circle><circle r="2" cx="430" cy="358"></circle><circle r="6" cx="568" cy="471"></circle><circle r="0" cx="232" cy="227"></circle><circle r="3" cx="487" cy="389"></circle><circle r="9" cx="662" cy="15"></circle><circle r="4" cx="567" cy="20"></circle><circle r="10" cx="289" cy="282"></circle><circle r="11" cx="526" cy="448"></circle><circle r="11" cx="484" cy="541"></circle><circle r="2" cx="850" cy="172"></circle><circle r="0" cx="836" cy="203"></circle><circle r="2" cx="381" cy="548"></circle><circle r="9" cx="63" cy="72"></circle><circle r="11" cx="419" cy="419"></circle><circle r="11" cx="316" cy="22"></circle><circle r="2" cx="579" cy="110"></circle><circle r="7" cx="68" cy="177"></circle><circle r="7" cx="420" cy="245"></circle><circle r="0" cx="209" cy="325"></circle><circle r="0" cx="464" cy="585"></circle><circle r="10" cx="303" cy="471"></circle><circle r="7" cx="633" cy="250"></circle><circle r="7" cx="683" cy="308"></circle><circle r="3" cx="263" cy="360"></circle><circle r="10" cx="736" cy="318"></circle><circle r="12" cx="248" cy="408"></circle><circle r="4" cx="162" cy="559"></circle><circle r="7" cx="653" cy="96"></circle><circle r="12" cx="591" cy="47"></circle><circle r="8" cx="306" cy="185"></circle><circle r="11" cx="815" cy="549"></circle><circle r="12" cx="568" cy="68"></circle><circle r="1" cx="481" cy="165"></circle><circle r="9" cx="675" cy="568"></circle><circle r="11" cx="214" cy="442"></circle><circle r="11" cx="517" cy="233"></circle><circle r="0" cx="276" cy="483"></circle><circle r="8" cx="281" cy="120"></circle><circle r="2" cx="194" cy="103"></circle><circle r="2" cx="761" cy="524"></circle><circle r="5" cx="666" cy="43"></circle><circle r="9" cx="473" cy="488"></circle><circle r="3" cx="117" cy="128"></circle><circle r="8" cx="359" cy="513"></circle><circle r="4" cx="324" cy="122"></circle><circle r="7" cx="293" cy="146"></circle><circle r="4" cx="770" cy="434"></circle><circle r="7" cx="358" cy="356"></circle><circle r="8" cx="109" cy="302"></circle><circle r="6" cx="595" cy="153"></circle><circle r="2" cx="732" cy="491"></circle><circle r="10" cx="188" cy="508"></circle><circle r="11" cx="191" cy="136"></circle><circle r="4" cx="28" cy="405"></circle><circle r="6" cx="461" cy="197"></circle><circle r="10" cx="422" cy="153"></circle><circle r="6" cx="390" cy="352"></circle><circle r="5" cx="766" cy="133"></circle><circle r="10" cx="47" cy="46"></circle><circle r="4" cx="380" cy="302"></circle><circle r="6" cx="533" cy="558"></circle><circle r="0" cx="774" cy="254"></circle><circle r="1" cx="17" cy="279"></circle><circle r="7" cx="656" cy="184"></circle><circle r="11" cx="692" cy="399"></circle><circle r="1" cx="150" cy="30"></circle><circle r="4" cx="124" cy="527"></circle><circle r="2" cx="638" cy="140"></circle><circle r="2" cx="22" cy="444"></circle><circle r="3" cx="777" cy="38"></circle><circle r="6" cx="523" cy="333"></circle><circle r="10" cx="773" cy="305"></circle><circle r="2" cx="714" cy="222"></circle><circle r="12" cx="626" cy="320"></circle><circle r="8" cx="649" cy="578"></circle><circle r="7" cx="106" cy="206"></circle><circle r="10" cx="335" cy="545"></circle><circle r="5" cx="694" cy="244"></circle><circle r="9" cx="449" cy="73"></circle><circle r="1" cx="22" cy="186"></circle><circle r="10" cx="111" cy="467"></circle><circle r="0" cx="73" cy="360"></circle><circle r="10" cx="868" cy="517"></circle><circle r="7" cx="782" cy="83"></circle><circle r="1" cx="878" cy="346"></circle><circle r="3" cx="277" cy="455"></circle><circle r="10" cx="230" cy="541"></circle><circle r="0" cx="665" cy="229"></circle><circle r="12" cx="841" cy="433"></circle><circle r="12" cx="409" cy="491"></circle><circle r="2" cx="62" cy="229"></circle><circle r="9" cx="271" cy="187"></circle><circle r="1" cx="751" cy="581"></circle><circle r="6" cx="621" cy="42"></circle><circle r="3" cx="76" cy="563"></circle><circle r="7" cx="600" cy="276"></circle><circle r="4" cx="293" cy="231"></circle><circle r="7" cx="353" cy="130"></circle><circle r="2" cx="262" cy="155"></circle><circle r="1" cx="404" cy="86"></circle><circle r="9" cx="672" cy="533"></circle><circle r="0" cx="69" cy="457"></circle><circle r="11" cx="878" cy="103"></circle><circle r="5" cx="671" cy="131"></circle><circle r="8" cx="559" cy="542"></circle><circle r="2" cx="433" cy="196"></circle><circle r="3" cx="702" cy="556"></circle><circle r="3" cx="407" cy="27"></circle><circle r="9" cx="490" cy="236"></circle><circle r="11" cx="303" cy="312"></circle><circle r="6" cx="241" cy="190"></circle><circle r="4" cx="169" cy="243"></circle><circle r="8" cx="693" cy="332"></circle><circle r="7" cx="597" cy="82"></circle><circle r="0" cx="787" cy="561"></circle><circle r="6" cx="712" cy="126"></circle><circle r="4" cx="263" cy="255"></circle><circle r="12" cx="516" cy="392"></circle><circle r="0" cx="646" cy="432"></circle><circle r="3" cx="839" cy="82"></circle><circle r="9" cx="428" cy="580"></circle><circle r="5" cx="429" cy="394"></circle><circle r="12" cx="66" cy="203"></circle><circle r="2" cx="407" cy="176"></circle><circle r="12" cx="256" cy="13"></circle><circle r="8" cx="368" cy="186"></circle><circle r="12" cx="392" cy="462"></circle><circle r="9" cx="749" cy="93"></circle><circle r="2" cx="360" cy="385"></circle><circle r="10" cx="419" cy="309"></circle><circle r="3" cx="124" cy="330"></circle><circle r="5" cx="301" cy="358"></circle><circle r="6" cx="567" cy="569"></circle><circle r="11" cx="463" cy="559"></circle><circle r="8" cx="157" cy="364"></circle><circle r="12" cx="706" cy="95"></circle><circle r="6" cx="193" cy="213"></circle><circle r="7" cx="834" cy="296"></circle><circle r="5" cx="149" cy="135"></circle><circle r="7" cx="526" cy="526"></circle><circle r="4" cx="81" cy="25"></circle><circle r="6" cx="749" cy="58"></circle><circle r="11" cx="685" cy="187"></circle><circle r="11" cx="246" cy="61"></circle><circle r="6" cx="880" cy="416"></circle><circle r="3" cx="39" cy="150"></circle><circle r="9" cx="234" cy="345"></circle><circle r="12" cx="546" cy="426"></circle><circle r="7" cx="568" cy="499"></circle><circle r="5" cx="122" cy="428"></circle><circle r="8" cx="671" cy="76"></circle><circle r="6" cx="309" cy="100"></circle><circle r="9" cx="720" cy="287"></circle><circle r="3" cx="204" cy="182"></circle><circle r="0" cx="44" cy="374"></circle><circle r="4" cx="467" cy="419"></circle><circle r="3" cx="315" cy="257"></circle><circle r="5" cx="737" cy="119"></circle><circle r="1" cx="643" cy="275"></circle><circle r="4" cx="687" cy="490"></circle><circle r="11" cx="46" cy="424"></circle><circle r="3" cx="465" cy="461"></circle><circle r="3" cx="666" cy="390"></circle><circle r="4" cx="768" cy="460"></circle><circle r="5" cx="777" cy="340"></circle><circle r="0" cx="49" cy="275"></circle><circle r="1" cx="848" cy="493"></circle><circle r="6" cx="336" cy="478"></circle><circle r="5" cx="726" cy="523"></circle><circle r="7" cx="884" cy="54"></circle><circle r="6" cx="840" cy="40"></circle><circle r="4" cx="396" cy="58"></circle><circle r="4" cx="513" cy="146"></circle><circle r="2" cx="303" cy="442"></circle><circle r="10" cx="27" cy="558"></circle><circle r="9" cx="842" cy="333"></circle><circle r="11" cx="864" cy="283"></circle><circle r="6" cx="17" cy="44"></circle><circle r="3" cx="794" cy="287"></circle><circle r="6" cx="218" cy="566"></circle><circle r="7" cx="446" cy="128"></circle><circle r="2" cx="525" cy="120"></circle><circle r="10" cx="456" cy="14"></circle><circle r="5" cx="383" cy="139"></circle><circle r="9" cx="535" cy="361"></circle><circle r="8" cx="125" cy="187"></circle><circle r="10" cx="607" cy="241"></circle><circle r="7" cx="761" cy="201"></circle><circle r="6" cx="486" cy="139"></circle><circle r="7" cx="289" cy="15"></circle><circle r="5" cx="458" cy="224"></circle><circle r="12" cx="697" cy="48"></circle><circle r="0" cx="70" cy="499"></circle><circle r="4" cx="512" cy="583"></circle><circle r="1" cx="360" cy="57"></circle><circle r="2" cx="130" cy="103"></circle><circle r="8" cx="229" cy="373"></circle><circle r="2" cx="570" cy="443"></circle><circle r="1" cx="410" cy="531"></circle><circle r="9" cx="80" cy="111"></circle><circle r="2" cx="20" cy="94"></circle><circle r="5" cx="741" cy="462"></circle><circle r="9" cx="103" cy="385"></circle><circle r="5" cx="599" cy="13"></circle><circle r="6" cx="623" cy="347"></circle><circle r="12" cx="48" cy="342"></circle><circle r="3" cx="534" cy="44"></circle><circle r="5" cx="610" cy="403"></circle><circle r="8" cx="469" cy="349"></circle><circle r="10" cx="887" cy="170"></circle><circle r="10" cx="816" cy="356"></circle><circle r="2" cx="272" cy="215"></circle><circle r="0" cx="326" cy="347"></circle><circle r="12" cx="100" cy="506"></circle><circle r="4" cx="874" cy="141"></circle><circle r="2" cx="271" cy="51"></circle><circle r="3" cx="490" cy="295"></circle><circle r="1" cx="599" cy="185"></circle><circle r="7" cx="394" cy="235"></circle><circle r="1" cx="252" cy="285"></circle><circle r="11" cx="751" cy="168"></circle><circle r="4" cx="92" cy="55"></circle><circle r="2" cx="824" cy="156"></circle><circle r="4" cx="464" cy="43"></circle><circle r="0" cx="117" cy="44"></circle><circle r="10" cx="865" cy="444"></circle><circle r="0" cx="83" cy="310"></circle><circle r="6" cx="381" cy="489"></circle><circle r="12" cx="431" cy="475"></circle><circle r="2" cx="284" cy="389"></circle><circle r="6" cx="49" cy="98"></circle><circle r="8" cx="88" cy="86"></circle><circle r="7" cx="182" cy="393"></circle><circle r="1" cx="836" cy="586"></circle><circle r="0" cx="381" cy="419"></circle><circle r="4" cx="594" cy="490"></circle><circle r="0" cx="735" cy="347"></circle><circle r="12" cx="535" cy="256"></circle><circle r="5" cx="541" cy="216"></circle><circle r="8" cx="130" cy="249"></circle><circle r="7" cx="410" cy="562"></circle><circle r="1" cx="126" cy="277"></circle><circle r="10" cx="16" cy="584"></circle><circle r="9" cx="721" cy="73"></circle><circle r="0" cx="746" cy="274"></circle><circle r="10" cx="213" cy="498"></circle><circle r="6" cx="385" cy="583"></circle><circle r="9" cx="47" cy="584"></circle><circle r="12" cx="792" cy="200"></circle><circle r="5" cx="459" cy="383"></circle><circle r="7" cx="136" cy="305"></circle><circle r="9" cx="276" cy="417"></circle><circle r="12" cx="441" cy="290"></circle><circle r="11" cx="818" cy="517"></circle><circle r="4" cx="142" cy="578"></circle><circle r="7" cx="876" cy="551"></circle><circle r="5" cx="620" cy="483"></circle><circle r="4" cx="467" cy="109"></circle><circle r="6" cx="886" cy="492"></circle><circle r="12" cx="498" cy="210"></circle><circle r="11" cx="791" cy="530"></circle><circle r="5" cx="884" cy="221"></circle><circle r="2" cx="586" cy="542"></circle><circle r="4" cx="18" cy="470"></circle><circle r="1" cx="515" cy="424"></circle><circle r="8" cx="869" cy="313"></circle><circle r="5" cx="876" cy="23"></circle><circle r="4" cx="336" cy="74"></circle><circle r="1" cx="559" cy="340"></circle><circle r="11" cx="765" cy="493"></circle><circle r="0" cx="342" cy="192"></circle><circle r="9" cx="695" cy="161"></circle><circle r="3" cx="317" cy="286"></circle><circle r="7" cx="696" cy="272"></circle><circle r="1" cx="44" cy="474"></circle><circle r="12" cx="224" cy="115"></circle><circle r="9" cx="769" cy="366"></circle><circle r="12" cx="180" cy="325"></circle><circle r="12" cx="18" cy="526"></circle><circle r="5" cx="745" cy="383"></circle><circle r="6" cx="314" cy="210"></circle><circle r="10" cx="251" cy="558"></circle><circle r="2" cx="361" cy="16"></circle><circle r="7" cx="752" cy="15"></circle><circle r="3" cx="378" cy="111"></circle><circle r="4" cx="569" cy="145"></circle><circle r="7" cx="885" cy="374"></circle><circle r="3" cx="708" cy="470"></circle><circle r="11" cx="220" cy="285"></circle><circle r="1" cx="164" cy="104"></circle><circle r="12" cx="821" cy="386"></circle><circle r="7" cx="803" cy="583"></circle><circle r="7" cx="24" cy="352"></circle><circle r="2" cx="579" cy="408"></circle><circle r="1" cx="698" cy="524"></circle><circle r="0" cx="263" cy="84"></circle><circle r="11" cx="635" cy="506"></circle><circle r="8" cx="821" cy="102"></circle><circle r="4" cx="322" cy="374"></circle><circle r="0" cx="80" cy="283"></circle><circle r="8" cx="298" cy="42"></circle><circle r="12" cx="36" cy="71"></circle><circle r="4" cx="422" cy="52"></circle><circle r="3" cx="412" cy="336"></circle><circle r="12" cx="849" cy="16"></circle><circle r="10" cx="620" cy="584"></circle><circle r="3" cx="93" cy="444"></circle><circle r="12" cx="838" cy="268"></circle><circle r="8" cx="98" cy="543"></circle><circle r="10" cx="884" cy="586"></circle><circle r="5" cx="328" cy="434"></circle><circle r="4" cx="145" cy="227"></circle><circle r="8" cx="446" cy="172"></circle><circle r="6" cx="758" cy="553"></circle><circle r="7" cx="631" cy="14"></circle><circle r="10" cx="351" cy="576"></circle><circle r="8" cx="814" cy="185"></circle><circle r="11" cx="285" cy="524"></circle><circle r="2" cx="361" cy="158"></circle><circle r="1" cx="129" cy="501"></circle><circle r="11" cx="15" cy="381"></circle><circle r="3" cx="363" cy="469"></circle><circle r="5" cx="195" cy="15"></circle><circle r="5" cx="375" cy="330"></circle><circle r="0" cx="726" cy="42"></circle><circle r="8" cx="859" cy="64"></circle><circle r="6" cx="869" cy="471"></circle><circle r="10" cx="721" cy="403"></circle><circle r="12" cx="558" cy="93"></circle><circle r="8" cx="489" cy="568"></circle><circle r="10" cx="625" cy="294"></circle><circle r="5" cx="544" cy="586"></circle><circle r="5" cx="691" cy="17"></circle><circle r="2" cx="151" cy="267"></circle><circle r="4" cx="142" cy="55"></circle><circle r="10" cx="46" cy="526"></circle><circle r="2" cx="268" cy="586"></circle><circle r="6" cx="109" cy="232"></circle><circle r="5" cx="492" cy="262"></circle><circle r="6" cx="740" cy="217"></circle><circle r="3" cx="222" cy="473"></circle><circle r="3" cx="182" cy="66"></circle><circle r="1" cx="353" cy="296"></circle><circle r="5" cx="802" cy="406"></circle><circle r="6" cx="683" cy="107"></circle><circle r="7" cx="458" cy="533"></circle><circle r="3" cx="665" cy="507"></circle><circle r="9" cx="738" cy="435"></circle><circle r="4" cx="354" cy="249"></circle></g></svg>